<svg id="Icons" height="512" viewBox="0 0 60 60" width="512" xmlns="http://www.w3.org/2000/svg"><path d="m15.965 59.47a.5.5 0 0 1 -.263-.926l5.545-3.418-7.408 4.274a.5.5 0 0 1 -.51-.859l.047-.028-1.093.63a.5.5 0 0 1 -.511-.86l3.7-2.26-3.982 2.3a.5.5 0 0 1 -.516-.855l17.57-11.06-17.269 9.973a.5.5 0 0 1 -.517-.855l19.77-12.546-16.553 9.557a.5.5 0 0 1 -.518-.854l17.21-10.928-12.415 7.167a.5.5 0 0 1 -.52-.855l14.106-9.005-9.565 5.521a.5.5 0 0 1 -.513-.857l3.046-1.895a.5.5 0 0 1 -.478-.877l2.617-1.628a.5.5 0 0 1 -.266-.915l11.956-8.046-6.847 3.952a.5.5 0 0 1 -.523-.851l4.171-2.724-.719.415a.5.5 0 0 1 -.531-.845l5.293-3.6-1.379.788a.5.5 0 0 1 -.537-.843l3.62-2.527a.494.494 0 0 1 -.595-.188.5.5 0 0 1 .109-.674l4.235-3.266a.5.5 0 0 1 -.476-.193.5.5 0 0 1 .053-.662l3.457-3.325a.5.5 0 0 1 .217-.609l1.089-.628a.5.5 0 0 1 .6.794l-1.708 1.642 2.555-1.474a.5.5 0 0 1 .555.828l-4.037 3.114 3.482-2.01a.5.5 0 0 1 .536.843l-3.555 2.49 3.025-1.747a.5.5 0 0 1 .531.846l-5.3 3.6 4.766-2.751a.5.5 0 0 1 .523.851l-4.177 2.727 3.654-2.109a.5.5 0 0 1 .529.848l-11.957 8.05 11.426-6.6a.5.5 0 0 1 .514.858l-.714.444.2-.115a.5.5 0 0 1 .513.857l-3.024 1.881 2.511-1.449a.5.5 0 0 1 .519.854l-14.1 9 13.581-7.835a.5.5 0 0 1 .517.855l-17.208 10.923 16.691-9.632a.5.5 0 0 1 .517.854l-19.777 12.551 19.26-11.119a.5.5 0 0 1 .516.856l-17.566 11.057 17.05-9.844a.5.5 0 0 1 .51.86l-3.689 2.251 3.179-1.834a.5.5 0 0 1 .509.859l-.422.258a.5.5 0 0 1 .425.9l-5.532 3.408 5.019-2.9a.5.5 0 0 1 .517.855l-11.479 7.28 10.963-6.329a.5.5 0 0 1 .519.853l-10.713 6.873 10.194-5.884a.5.5 0 0 1 .523.851l-10.029 6.543 9.506-5.487a.5.5 0 0 1 .517.855l-2.344 1.484 1.827-1.055a.5.5 0 0 1 .522.852l-4.735 3.084 4.213-2.432a.5.5 0 0 1 .532.846l-6.534 4.468 6-3.465a.5.5 0 0 1 .538.842l-5.106 3.586 4.57-2.637a.5.5 0 0 1 .549.833l-4.211 3.142 3.662-2.114a.5.5 0 0 1 .555.828l-2.361 1.825 1.806-1.042a.5.5 0 0 1 .57.817l-1.256 1.049.686-.4a.5.5 0 0 1 .654.728l-1.006 1.375.24-.137a.5.5 0 1 1 .5.865l-2.288 1.323a.5.5 0 0 1 -.654-.727l1.005-1.373-3.644 2.1a.5.5 0 0 1 -.57-.816l1.255-1.049-3.232 1.865a.5.5 0 0 1 -.555-.828l2.363-1.827-4.6 2.655a.5.5 0 0 1 -.548-.833l4.209-3.14-6.883 3.973a.5.5 0 0 1 -.538-.841l5.109-3.594-7.683 4.435a.5.5 0 0 1 -.532-.845l6.534-4.468-9.2 5.313a.5.5 0 0 1 -.522-.851l4.73-3.076-6.8 3.927a.5.5 0 0 1 -.518-.855l2.347-1.484-4.061 2.339a.5.5 0 0 1 -.523-.851l10.025-6.539-12.805 7.39a.5.5 0 0 1 -.519-.853l10.714-6.874-13.385 7.727a.5.5 0 0 1 -.518-.854l11.479-7.275-14.085 8.129a.5.5 0 0 1 -.25.07z" fill="#d4e6e7"/><path d="m42.992 19.157a.5.5 0 0 1 -.322-.883l3.655-3.074-3.3 1.908a.5.5 0 0 1 -.568-.819l3.57-2.946-3.217 1.85a.5.5 0 0 1 -.568-.819l3.714-3.05-3.356 1.94a.5.5 0 0 1 -.546-.836l1.293-.949-.889.512a.5.5 0 0 1 -.559-.825l3.321-2.622-2.96 1.708a.5.5 0 0 1 -.552-.831l2.213-1.677-1.821 1.056a.5.5 0 0 1 -.575-.814l3.064-2.613-2.7 1.557a.5.5 0 0 1 -.579-.81l2.006-1.75-1.607.93a.5.5 0 0 1 -.635-.752l1.4-1.683-.971.56a.5.5 0 0 1 -.745-.5l.164-1.137a.5.5 0 0 1 -.29-.228.5.5 0 0 1 .183-.684l.47-.27a.5.5 0 0 1 .53.019.5.5 0 0 1 .215.486l-.135.937 2.496-1.448a.5.5 0 0 1 .634.752l-1.4 1.683 3.645-2.1a.5.5 0 0 1 .58.809l-2.003 1.743 2.967-1.713a.5.5 0 0 1 .575.814l-3.064 2.612 4.031-2.327a.5.5 0 0 1 .552.831l-2.216 1.68 2.028-1.17a.5.5 0 0 1 .559.825l-3.325 2.621 2.766-1.6a.5.5 0 0 1 .546.836l-1.294.951.748-.432a.5.5 0 0 1 .567.819l-3.711 3.048 3.144-1.81a.5.5 0 0 1 .568.818l-3.572 2.948 3-1.734a.5.5 0 0 1 .572.815l-3.65 3.081 3.082-1.779a.5.5 0 0 1 .576.812l-.788.677a.505.505 0 0 1 .61.218.5.5 0 0 1 -.182.683l-4.521 2.61a.5.5 0 0 1 -.576-.811l.762-.657-3.359 1.94a.491.491 0 0 1 -.25.064z" fill="#5590b7"/><path d="m11.058 55.47a.5.5 0 0 1 -.261-.927l2.775-1.7-3.6 2.078a.5.5 0 0 1 -.51-.859l.749-.458-.82.474a.5.5 0 0 1 -.512-.858l6.725-4.133-6.324 3.652a.5.5 0 0 1 -.514-.856l13.257-8.275-12.743 7.357a.5.5 0 0 1 -.51-.86l2.538-1.547-2.028 1.17a.5.5 0 0 1 -.512-.859l8.452-5.21-7.94 4.583a.5.5 0 0 1 -.516-.855l16.411-10.356-15.895 9.177a.5.5 0 0 1 -.511-.858l6.986-4.294-6.475 3.737a.5.5 0 0 1 -.515-.856l13.945-8.722-13.43 7.753a.5.5 0 0 1 -.517-.856l17.246-10.919-16.729 9.659a.5.5 0 0 1 -.511-.859l6.217-3.82-5.706 3.294a.5.5 0 0 1 -.512-.858l8.662-5.361-8.15 4.7a.5.5 0 0 1 -.519-.853l16.793-10.749-16.274 9.395a.5.5 0 0 1 -.514-.856l10.534-6.578-10.02 5.782a.5.5 0 0 1 -.51-.86l.773-.472-.263.151a.5.5 0 0 1 -.513-.857l7.367-4.563-6.854 3.957a.5.5 0 0 1 -.518-.854l15.461-9.843-14.943 8.627a.5.5 0 0 1 -.519-.854l16.373-10.471-15.854 9.15a.5.5 0 0 1 -.517-.854l14.445-9.155-13.928 8.044a.5.5 0 0 1 -.519-.853l16.307-10.444-15.788 9.115a.5.5 0 0 1 -.521-.853l16.249-10.495-15.728 9.08a.5.5 0 0 1 -.514-.856l6.869-4.3-6.355 3.671a.5.5 0 0 1 -.515-.857l4.986-3.124-4.471 2.581a.5.5 0 0 1 -.515-.856l2.6-1.628-2.085 1.204a.5.5 0 0 1 -.517-.854l3.805-2.416-3.288 1.9a.5.5 0 0 1 -.517-.854l1.725-1.1-1.208.7a.5.5 0 0 1 -.522-.852l3.118-2.022-2.6 1.5a.5.5 0 0 1 -.53-.846l4.806-3.249-4.272 2.463a.5.5 0 0 1 -.525-.849l.615-.408-.09.052a.5.5 0 0 1 -.56-.824l5.18-4.112-4.62 2.666a.5.5 0 0 1 -.541-.839l.379-.276a.5.5 0 0 1 -.437-.849l2.154-2.108-1.555.9a.5.5 0 0 1 -.664-.713l.776-1.149a.5.5 0 0 1 -.325-.926l1.659-.955a.5.5 0 0 1 .664.713l-.731 1.087 3.112-1.8a.5.5 0 0 1 .6.79l-2.155 2.11 5.02-2.9a.5.5 0 0 1 .541.839l-.126.09 1.611-.929a.5.5 0 0 1 .56.824l-5.18 4.113 8.558-4.937a.5.5 0 0 1 .526.849l-.618.409 2.175-1.258a.5.5 0 0 1 .53.846l-4.8 3.246 7.087-4.092a.5.5 0 0 1 .522.852l-3.122 2.022 4.984-2.874a.5.5 0 0 1 .516.852l-1.726 1.1 3.382-1.952a.5.5 0 0 1 .518.854l-3.795 2.407 5.654-3.261a.5.5 0 0 1 .516.856l-2.6 1.626 4.303-2.482a.5.5 0 0 1 .516.856l-4.987 3.122 6.895-3.978a.5.5 0 0 1 .514.856l-6.871 4.3 8.549-4.94a.5.5 0 0 1 .522.853l-16.251 10.5 17.247-9.961a.5.5 0 0 1 .519.854l-16.305 10.438 16.12-9.3a.5.5 0 0 1 .517.855l-14.445 9.151 13.928-8.041a.5.5 0 0 1 .519.854l-16.373 10.471 15.854-9.153a.5.5 0 0 1 .518.854l-15.461 9.843 14.943-8.627a.5.5 0 0 1 .513.858l-7.367 4.562 6.854-3.957a.5.5 0 0 1 .51.859l-.773.473.263-.151a.5.5 0 0 1 .514.856l-10.519 6.572 10.2-5.888a.5.5 0 0 1 .52.853l-16.81 10.763 17.575-10.148a.5.5 0 0 1 .513.857l-8.659 5.359 9.11-5.258a.5.5 0 0 1 .512.858l-6.191 3.8 6.232-3.6a.5.5 0 0 1 .517.856l-17.253 10.931 16.739-9.662a.5.5 0 0 1 .515.857l-13.945 8.719 13.43-7.753a.5.5 0 0 1 .511.859l-6.986 4.294 6.475-3.738a.5.5 0 0 1 .516.856l-16.4 10.349 15.884-9.171a.5.5 0 0 1 .512.858l-8.452 5.21 7.94-4.583a.5.5 0 0 1 .51.859l-2.566 1.566 2.056-1.182a.5.5 0 0 1 .514.857l-13.243 8.26 12.729-7.348a.5.5 0 0 1 .511.858l-6.751 4.149 6.24-3.6a.5.5 0 0 1 .509.859l-.732.447.223-.128a.5.5 0 0 1 .51.859l-2.794 1.711 2.284-1.324a.5.5 0 0 1 .517.855l-12.184 7.723 11.667-6.735a.5.5 0 0 1 .517.854l-9.373 5.941 8.856-5.112a.5.5 0 0 1 .515.857l-4.718 2.963 4.2-2.425a.5.5 0 0 1 .521.852l-8.032 5.2 7.514-4.333a.5.5 0 0 1 .524.851l-7.078 4.655 6.554-3.783a.5.5 0 0 1 .537.842l-8.378 5.881 7.841-4.527a.5.5 0 0 1 .548.834l-6.726 4.991 6.178-3.567a.5.5 0 0 1 .531.847l-.446.3a.5.5 0 0 1 .455.88l-.983.7.443-.255a.5.5 0 0 1 .58.808l-2.392 2.103 1.812-1.045a.5.5 0 0 1 .653.729l-1.224 1.668.5-.29a.5.5 0 1 1 .5.865l-2.561 1.473a.5.5 0 0 1 -.653-.728l1.223-1.667-4.149 2.4a.5.5 0 0 1 -.58-.808l2.39-2.1-5.03 2.9a.5.5 0 0 1 -.54-.839l.986-.705-2.674 1.547a.5.5 0 0 1 -.532-.846l.348-.236-1.877 1.082a.5.5 0 0 1 -.548-.834l6.725-4.989-10.085 5.823a.5.5 0 0 1 -.537-.841l8.38-5.882-11.648 6.723a.5.5 0 0 1 -.524-.85l7.076-4.65-9.539 5.5a.5.5 0 0 1 -.522-.852l8.032-5.2-10.485 6.052a.5.5 0 0 1 -.515-.856l4.715-2.963-6.615 3.819a.5.5 0 0 1 -.517-.854l9.379-5.946-11.779 6.8a.5.5 0 0 1 -.517-.855l12.188-7.721-14.856 8.576a.5.5 0 0 1 -.25.07z" fill="#f4c44e"/><path d="m18.978 24.47a.5.5 0 0 1 -.273-.919l4.416-2.867-5.914 3.416a.5.5 0 0 1 -.532-.846l8.991-6.134-9.378 5.414a.5.5 0 0 1 -.533-.844l7.016-4.817-6.491 3.745a.5.5 0 0 1 -.53-.847l3.55-2.408-3.02 1.743a.5.5 0 0 1 -.534-.843l2.279-1.573-1.745 1.01a.5.5 0 0 1 -.549-.834l2.811-2.089-2.262 1.302a.5.5 0 0 1 -.563-.822l1.944-1.567-1.381.8a.5.5 0 0 1 -.6-.793l1.22-1.174-.622.36a.5.5 0 0 1 -.639-.746l.536-.668a.5.5 0 0 1 -.112-.913l1.659-.956a.5.5 0 0 1 .639.746l-.271.338 1.882-1.084a.5.5 0 0 1 .6.793l-1.219 1.171 3.4-1.964a.5.5 0 0 1 .563.822l-1.945 1.567 4.138-2.389a.5.5 0 0 1 .549.834l-2.808 2.085 5.061-2.919a.5.5 0 0 1 .534.843l-2.283 1.575 4.19-2.418a.5.5 0 0 1 .53.846l-3.546 2.404 5.633-3.25a.5.5 0 0 1 .533.844l-7.019 4.82 9.81-5.664a.5.5 0 0 1 .533.845l-8.99 6.132 10.964-6.333a.5.5 0 0 1 .523.852l-4.413 2.867 4.4-2.539a.5.5 0 0 1 .53.847l-6.24 4.213 5.716-3.3a.5.5 0 0 1 .528.847l-3.1 2.08 2.572-1.484a.5.5 0 0 1 .555.828l-5.664 4.385 5.109-2.949a.5.5 0 0 1 .575.812l-3.651 3.124 3.076-1.775a.5.5 0 0 1 .608.781l-1.848 1.9 1.24-.714a.5.5 0 0 1 .637.748l-.536.659a.494.494 0 0 1 .353.243.5.5 0 0 1 -.183.683l-1.815 1.048a.5.5 0 0 1 -.638-.748l.335-.412-2.011 1.16a.5.5 0 0 1 -.608-.781l1.848-1.9-4.644 2.681a.5.5 0 0 1 -.575-.812l3.651-3.124-6.819 3.936a.5.5 0 0 1 -.556-.828l5.665-4.385-9.03 5.213a.5.5 0 0 1 -.528-.847l3.1-2.083-5.073 2.93a.5.5 0 0 1 -.53-.846l6.228-4.21-8.759 5.056a.5.5 0 0 1 -.25.07z" fill="#d4e6e7"/><path d="m24.742 47.47a.5.5 0 0 1 -.41-.215.5.5 0 0 1 .092-.671l4.631-3.829-6.463 3.731a.5.5 0 0 1 -.554-.83l5.439-4.15-5.2 3a.5.5 0 0 1 -.551-.832l4.788-3.61-4.234 2.446a.5.5 0 0 1 -.538-.841l1.012-.714-.474.273a.5.5 0 0 1 -.548-.834l.8-.591-.247.142a.5.5 0 0 1 -.625-.763l1.927-2.182-1.307.754a.5.5 0 0 1 -.631-.757l.465-.547a.5.5 0 0 1 -.049-.89l1.657-.956a.5.5 0 0 1 .631.756l-.072.084 1.46-.842a.5.5 0 0 1 .625.763l-1.932 2.187 5.111-2.95a.5.5 0 0 1 .548.834l-.794.589 2.465-1.425a.5.5 0 0 1 .538.84l-1.002.71 1.785-1.03a.5.5 0 0 1 .551.832l-4.788 3.611 4.877-2.816a.5.5 0 0 1 .553.83l-5.438 4.15 4.885-2.82a.5.5 0 0 1 .568.819l-4.633 3.83 4.06-2.346a.5.5 0 0 1 .6.788l-2.62 2.592 2.024-1.168a.5.5 0 0 1 .605.784l-.512.518a.5.5 0 0 1 .391.913l-3.063 1.763a.5.5 0 0 1 -.606-.784l.472-.477-2.187 1.261a.5.5 0 0 1 -.6-.788l2.625-2.592-5.857 3.38a.493.493 0 0 1 -.25.07z" fill="#c99e3d"/><path d="m28.028 43.468a.5.5 0 0 1 -.349-.143.5.5 0 0 1 -.089-.6l.783-1.423-1.852 1.069a.5.5 0 0 1 -.681-.685l.749-1.28-.024.013a.5.5 0 0 1 -.5-.865l1.658-.956a.494.494 0 0 1 .6.08.5.5 0 0 1 .077.6l-.748 1.278 1.77-1.021a.5.5 0 0 1 .688.674l-.783 1.422.1-.059a.5.5 0 0 1 .5.865l-1.656.956a.49.49 0 0 1 -.243.075z" fill="#a37f38"/><g fill="#262626"><path d="m12.529 59.286q16.447 0 32.9 0c4.731.4 7.048-.36 6.293-5.666-.013-16.464.025-32.948 0-49.38-2.54-5.884-10.922-3.052-16.04-3.693h-22.882c-1.966 0-4.418.1-4.528 2.693-.022 16.318.016 32.644 0 48.964-.217 1.427.463 3.007 2 3.156-.004 1.782-.072 3.788 2.257 3.926zm37.747-2.567c-.015.714-.032 1.76-.861 1.995-7.427.032-14.943-.023-22.4 0-4.452-.018-8.91.025-13.359 0-1.927-.133-1.962-1.772-1.939-3.262h31.146c2.008 0 4.726.08 4.865-2.644.081-11.569-.084-23.154.025-34.725a27.789 27.789 0 0 0 2.523-1.475c-.011 13.37.016 26.741 0 40.111zm-2.635-38.584a.372.372 0 0 1 -.062.04.185.185 0 0 1 .062-.04zm-1.97-16.683c6.252.413 4.362 6.643 4.6 10.961.447 2.469-.551 4.09-2.967 4.931-5.575-3.565-.18-11.444-3.752-15.944.707.017 1.414.023 2.119.052zm-35.845 51.986c-.32-16.547.023-33.225-.1-49.816-.248-1.4.623-2.5 2.072-2.17 9.547 0 19.078.033 28.629-.08 6.691.94-1.045 13.1 5.843 16.875-.015 11.663.028 23.336-.013 34.993-.246 2.6-7.539.809-9.692 1.309h-21.4c-1.373-.001-4.742.607-5.339-1.111z"/><path d="m15.276 22.194c.2 2.687 3.28 2.225 5.174 2.225h17.27c3.615-.008 3.034-3.909 3.005-6.443-.306-2.491.734-5.485-.638-7.676-1.211-1.222-4.1-.719-5.633-.719-5.36.028-10.722-.048-16.081 0-5.294.119-2.541 9.051-3.097 12.613zm1.449-10.275c.16-2.184 3.108-1.5 4.629-1.5h15.67c2.8-.277 2.293 2.913 2.251 4.806-.426 2.026 1.124 7.713-1.147 8.357-6.494-.039-12.994.063-19.485 0-3.367.247-1.571-9.191-1.918-11.663z"/><path d="m34.724 38.534c.336-2.066-.542-4.248-2.988-3.807 1.531-8.475-8.894-8.266-7.472.027-4.319.09-2.71 5.125-2.988 7.965 0 1.262-.337 3.116.737 4.038 2.989 1.189 6.631.249 9.839.487 4.466-.301 2.458-5.738 2.872-8.71zm-8.988-6.58a2.2 2.2 0 0 1 3.538-1.9c1.455 1.1.881 3.1.99 4.67-1.509 0-3.018-.006-4.528 0 .002-.924-.002-1.847 0-2.77zm7.54 10.539c-.16 1.355.52 3.356-.8 4.235-2.985-.539-7.359 1.266-9.562-1.072-.48-2.67-.051-5.508-.19-8.235-.11-1.043.32-2.433 1.6-2.148.208.409.972.353 1.279 0h4.717c.2.4.935.355 1.257.024 2.99.679 1.263 4.978 1.699 7.196z"/><path d="m29.151 38.763c-2.054-.713-4.908 1.408-3.519 3.573 2.325 3.264 7.779-1.8 3.519-3.573zm-1.721.666c.041-.03.023-.016 0 0zm1.046 3.192c.043-.021.03-.013 0 0zm.49-.449a.807.807 0 0 1 -.889.445 1.837 1.837 0 0 1 -.6-3.217c1.383-.258 2.301 1.715 1.489 2.772z"/><path d="m22.726 15.439c1.071-.275 12.91.777 10.549-.877-1.075.274-12.911-.778-10.549.877z"/><path d="m31.071 18.5c-2.043.361-5.29-.787-6.8.567-.047.373.4.443.661.443h6c.8.036 1.161-1.1.139-1.01z"/></g></svg>