<?xml version="1.0" encoding="UTF-8"?><svg id="Capa_1" xmlns="http://www.w3.org/2000/svg" viewBox="0 0 238.38 237.97"><defs><style>.cls-1{fill:#1d1d1b;}</style></defs><path class="cls-1" d="m59.56,208.04c-13.9-8.21-28.25-21.13-35.75-34.91-4.15-7.63-6.97-16.13-8.3-25.15.71,1.85,1.47,3.69,2.27,5.5,5.43,12.27,10.8,23.14,21.83,33.16,1.04.94,1.93,2.01,2.72,3.17,4.37,6.39,11.62,13.46,17.23,18.24Zm157.29-47.34c-1.91,3.85-4.61,7.42-6.41,11.29-.81,1.75-1.53,3.08-2.78,4.63-5.56,6.9-11.95,13.16-18.94,18.63-5.87,4.59-12.16,8.64-18.75,12.06-9.11,4.73-18.78,8.26-28.71,10.4-2.82.61-5.66,1.11-8.51,1.49-16.36,2.18-32.96.48-48.23-4.62-7.67-2.56-15.02-5.99-21.84-10.22-1.4-.87-2.79-1.77-4.18-2.71,11.55,9.84,26.29,16.6,42.83,19.6,21.13,3.83,46.33,1.55,69.09-9.73,11.87-5.88,22.41-14.14,30.91-24.13,8.39-9.85,14.72-21,18.81-32.15,1.42-3.88,2.69-9.21,2.28-8-1.56,4.59-3.42,9.09-5.58,13.46Zm20.53-37.88c-1.11,31.57-14.44,60.82-37.55,82.36-22.75,21.21-51.71,31.7-80.6,31.7-31.69,0-63.29-12.62-86.54-37.57C-11.77,151.62-9.14,76.63,38.56,32.17,61.67,10.63,91.76-.63,123.35.49c31.57,1.11,60.82,14.44,82.36,37.55,21.54,23.11,32.79,53.22,31.68,84.79Zm-6.54-7.01c.18-8.43-.64-16.82-2.5-24.94-6.37-27.86-26.55-52.19-51.26-66.06-4.23-2.37-8.63-4.45-13.2-6.15-2.09-.78-4.24-1.35-6.36-1.96-4.91-1.42-9.54-3.46-14.57-4.63-4.86-1.13-9.82-1.89-14.84-2.26-11.28-.84-22.79.2-33.97,2.89-11.09,2.67-21.88,6.95-31.9,12.67-9.99,5.71-19.22,12.86-27.16,21.25-8.29,8.76-15.08,18.87-19.98,29.78-4.36,9.7-7.24,20.07-7.81,30.52-.17,3.19.4,5.54.67,8.56.38,4.39,1.02,8.75,1.88,13.06.51,2.55,1.11,5.07,1.78,7.57-.2,9.01.97,17.72,3.44,25.82,6.35,20.89,21.23,37.24,40.3,48.21,4.72,2.71,9.99,6.36,15.03,8.79,26.51,12.81-6.61-6.39-6.05-7,4.51,2.37,17.01,8.97,22.02,10.61,20.15,6.6,50.09,5.35,74.08-2.19,12.13-3.81,18.43-7.9,28.76-16.15,11.1-8.87,19.99-19.95,26.62-31.51,10.82-18.87,16.92-38.69,15.01-56.89Z"/><path class="cls-1" d="m66.8,81.68c1-.48,2.12-.71,3.36-.71,2.53,0,4.22.85,5.08,2.54.86,1.69,1.29,4.02,1.29,6.97v21.38h9.15v-24.24c0-4.58-1.08-8.11-3.25-10.62-2.17-2.5-5.33-3.75-9.47-3.75-2.29,0-4.4.45-6.33,1.36-1.93.91-3.61,2.38-5.04,4.43v-4.86h-8.94v37.68h9.15v-20.95c0-1.48.2-2.82.61-4.04.41-1.22.99-2.26,1.75-3.15.76-.88,1.65-1.56,2.65-2.04Z"/><polygon class="cls-1" points="147.25 111.85 153.9 84.11 160.12 111.85 169.57 111.85 181.07 74.17 171.7 74.17 165.56 99.96 158.84 74.17 148.68 74.17 142.25 99.96 136.39 74.17 126.45 74.17 137.95 111.85 147.25 111.85"/><path class="cls-1" d="m91.68,151.35v4.22h9.01l-.67-45.37c.66.39,1.34.76,2.07,1.07,2.31,1,4.97,1.5,7.97,1.5,3.91,0,7.27-.76,10.08-2.29,2.81-1.53,5.1-3.69,6.86-6.51l-7.44-3.79c-.86,1.53-2.01,2.78-3.47,3.75-1.45.98-3.32,1.47-5.61,1.47-3,0-5.35-.85-7.04-2.54-1.69-1.69-2.61-4.25-2.75-7.69h26.6v-1.86c0-2.91-.39-5.6-1.18-8.08-.79-2.48-1.94-4.6-3.47-6.36-1.53-1.76-3.4-3.15-5.61-4.15-2.22-1-4.73-1.5-7.54-1.5-2.96,0-5.56.49-7.83,1.47-2.26.98-4.17,2.35-5.72,4.11-1.55,1.76-2.72,3.86-3.5,6.29-.79,2.43-1.18,5.08-1.18,7.94,0,1.55.14,3.04.39,4.47l-.11,23.96c-1.24-1.43-2.71-2.54-4.4-3.32-1.69-.79-3.73-1.18-6.11-1.18s-4.68.49-6.76,1.47c-2.07.98-3.85,2.34-5.33,4.07-1.48,1.74-2.63,3.82-3.47,6.26s-1.25,5.1-1.25,8.01.39,5.56,1.18,7.97,1.9,4.48,3.33,6.22c1.43,1.74,3.16,3.1,5.18,4.08,2.03.98,4.3,1.47,6.83,1.47,1.96,0,3.92-.39,5.9-1.18,1.98-.79,3.66-2.11,5.04-3.97Zm11.69-68.96c1.55-1.48,3.56-2.22,6.04-2.22s4.44.72,5.9,2.14c1.45,1.43,2.3,3.65,2.54,6.65h-17.16c.24-2.91,1.13-5.1,2.68-6.58Zm-27.28,63.53c-1.57-2.1-2.36-5.17-2.36-9.22s.81-6.94,2.43-9.08c1.62-2.15,3.89-3.22,6.79-3.22,2.53,0,4.66,1.03,6.4,3.07,1.74,2.05,2.61,5.12,2.61,9.22s-.82,7.3-2.47,9.33c-1.64,2.03-3.82,3.04-6.54,3.04-3,0-5.29-1.05-6.86-3.15Z"/><path class="cls-1" d="m120.53,132.27c-5.53.67-9.47,2.09-11.83,4.25-2.36,2.17-3.54,4.99-3.54,8.47,0,1.67.29,3.19.86,4.58.57,1.38,1.39,2.6,2.47,3.65,1.07,1.05,2.41,1.86,4,2.43,1.6.57,3.4.86,5.4.86s4.02-.36,6.04-1.07c2.03-.71,3.75-1.98,5.18-3.79.24,1.43.6,2.74,1.07,3.93h9.22c-.52-1.33-.87-2.67-1.04-4-.17-1.33-.25-2.74-.25-4.22v-18.52c0-1.86-.27-3.53-.82-5-.55-1.48-1.44-2.73-2.68-3.75-1.24-1.03-2.84-1.8-4.79-2.32-1.95-.52-4.34-.79-7.15-.79-4.81,0-8.66.99-11.55,2.97-2.88,1.98-4.37,5.02-4.47,9.12h9.01c.05-2,.6-3.41,1.65-4.22,1.05-.81,2.76-1.22,5.15-1.22,2.57,0,4.3.43,5.18,1.29.88.86,1.32,2.38,1.32,4.58v1.72l-8.44,1.07Zm8.44,9.15c0,1.14-.24,2.19-.72,3.15-.48.95-1.12,1.76-1.93,2.43-.81.67-1.74,1.19-2.79,1.57-1.05.38-2.17.57-3.36.57-2,0-3.44-.46-4.32-1.39-.88-.93-1.32-2.11-1.32-3.54,0-1.81.64-3.17,1.93-4.08,1.29-.91,3.43-1.55,6.43-1.93l6.08-.86v4.07Z"/><path class="cls-1" d="m164.74,117.89l-7.52,29.95-6.92-29.95h-10.36l13.32,43.62-.13.42c-1.21,3.95-4.79,6.61-8.93,6.61h-61.37l3.7,7.77h57.68c7.58,0,14.15-4.87,16.36-12.11l3.02-9.9,11.52-36.41h-10.36Z"/></svg>